<svg width="24" height="16" viewBox="0 0 24 16" fill="none" xmlns="http://www.w3.org/2000/svg">
<path d="M23.879 3.97676C23.6958 3.4736 23.3277 3.07178 22.8424 2.84551C21.0855 2.02622 19.1147 1.94025 17.2931 2.60321L15.3898 3.29594L9.95781 0.60749C9.78564 0.522317 9.58595 0.511208 9.40543 0.576927L6.16221 1.75739C5.91729 1.84655 5.74179 2.06382 5.70616 2.32201C5.67054 2.5802 5.78065 2.83689 5.99229 2.98904L9.43436 5.46365L4.65076 7.2047L2.87573 5.76543C2.68387 5.6099 2.42446 5.56635 2.19238 5.65087L0.462675 6.28045C0.287454 6.34425 0.144718 6.47503 0.0659207 6.64406C-0.0128769 6.8131 -0.0213145 7.00641 0.042483 7.18168L1.14424 10.2087C1.50275 11.1937 2.22341 11.9802 3.17348 12.4232C4.12355 12.8663 5.18922 12.9128 6.17426 12.5543L10.3885 11.0204L9.47973 14.5888C9.41542 14.8414 9.49609 15.1088 9.68931 15.2837C9.82075 15.4026 9.9896 15.4655 10.1612 15.4655C10.2419 15.4655 10.3233 15.4516 10.4016 15.4231L13.6449 14.2426C13.8254 14.1769 13.9712 14.0402 14.0484 13.8642L16.226 8.89568L22.6809 6.54633C23.7196 6.16818 24.2571 5.01552 23.879 3.97676ZM7.89337 2.62379L9.60367 2.00133L13.563 3.96091L11.0337 4.8815L7.89337 2.62379ZM22.1999 5.22482L15.4623 7.67706C15.2817 7.74278 15.1359 7.87951 15.0588 8.05553L12.8811 13.024L11.1708 13.6465L12.0795 10.0781C12.1438 9.8255 12.0631 9.55808 11.8699 9.38323C11.7385 9.26431 11.5696 9.20145 11.398 9.20145C11.3173 9.20145 11.2359 9.21537 11.1576 9.24382L5.69327 11.2327C5.0612 11.4628 4.37738 11.4329 3.76777 11.1487C3.15815 10.8644 2.69573 10.3597 2.46571 9.72772L1.60442 7.3614L2.2993 7.10846L4.07434 8.54772C4.26615 8.70321 4.52556 8.74671 4.75769 8.66229L17.7742 3.92468C19.2428 3.39011 20.8317 3.45949 22.2481 4.12001C22.393 4.18756 22.5029 4.30751 22.5576 4.45775C22.6704 4.76787 22.5099 5.11199 22.1999 5.22482Z" fill="#333333"/>
</svg>
