<svg width="12" height="7" viewBox="0 0 12 7" fill="none" xmlns="http://www.w3.org/2000/svg">
<path d="M1.34487 6.36738H10.6549C10.8197 6.36734 10.9807 6.31845 11.1178 6.22688C11.2548 6.13531 11.3615 6.00517 11.4246 5.85292C11.4877 5.70067 11.5042 5.53314 11.472 5.37152C11.4399 5.20989 11.3605 5.06142 11.244 4.94488L6.58904 0.289887C6.43277 0.133661 6.22084 0.0458984 5.99987 0.0458984C5.7789 0.0458984 5.56698 0.133661 5.41071 0.289887L0.755708 4.94488C0.6392 5.06142 0.559861 5.20989 0.527722 5.37152C0.495582 5.53314 0.512085 5.70067 0.575143 5.85292C0.638201 6.00517 0.744984 6.13531 0.881993 6.22688C1.019 6.31845 1.18008 6.36734 1.34487 6.36738Z" fill="#B52A22"/>
</svg>
