<svg width="21" height="20" viewBox="0 0 21 20" fill="none" xmlns="http://www.w3.org/2000/svg">
<path d="M15.0835 0.764282C14.1451 0.778878 13.2272 1.04083 12.4224 1.52367C11.6177 2.00652 10.9546 2.69317 10.5001 3.51428C10.0457 2.69317 9.38257 2.00652 8.57783 1.52367C7.77308 1.04083 6.85517 0.778878 5.91679 0.764282C4.42091 0.829274 3.01155 1.48366 1.99661 2.58448C0.981678 3.68529 0.443669 5.14305 0.500128 6.63928C0.500128 12.2851 9.63013 18.806 10.0185 19.0826L10.5001 19.4235L10.9818 19.0826C11.3701 18.8076 20.5001 12.2851 20.5001 6.63928C20.5566 5.14305 20.0186 3.68529 19.0036 2.58448C17.9887 1.48366 16.5793 0.829274 15.0835 0.764282Z" fill="url(#paint0_linear_2917_206)"/>
<defs>
<linearGradient id="paint0_linear_2917_206" x1="21" y1="19" x2="-6.07367e-07" y2="1" gradientUnits="userSpaceOnUse">
<stop stop-color="#FF7777"/>
<stop offset="1" stop-color="#EF234C"/>
</linearGradient>
</defs>
</svg>
