<svg width="25" height="25" viewBox="0 0 25 25" fill="none" xmlns="http://www.w3.org/2000/svg">
<g clip-path="url(#clip0_25_493)">
<path d="M17.0538 16.3979C13.0598 14.5521 7.4695 15.3685 7.23354 15.4041C6.70741 15.4836 6.34532 15.9744 6.42483 16.5005C6.50434 17.0266 6.99553 17.3884 7.52127 17.3092C7.57342 17.3013 12.7706 16.5409 16.2455 18.1468C16.3763 18.2073 16.5138 18.236 16.6491 18.236C17.0131 18.2359 17.3615 18.0287 17.5242 17.6766C17.7473 17.1936 17.5368 16.6211 17.0538 16.3979Z" fill="#D9D1C7"/>
<path d="M18.1763 12.9285C13.6404 10.8324 7.27964 11.7613 7.01106 11.8018C6.48519 11.8813 6.12335 12.3718 6.2026 12.8977C6.28173 13.4237 6.77266 13.786 7.2984 13.707C7.35851 13.6979 13.3619 12.8263 17.368 14.6776C17.499 14.7381 17.6363 14.7667 17.7716 14.7667C18.1356 14.7666 18.484 14.5594 18.6468 14.2072C18.87 13.7242 18.6593 13.1518 18.1763 12.9285Z" fill="#D9D1C7"/>
<path d="M18.9311 9.30408C13.9208 6.98854 6.8839 8.016 6.5868 8.06083C6.06093 8.14034 5.69909 8.63088 5.77835 9.15675C5.8576 9.68262 6.34866 10.0455 6.87414 9.96598C6.94132 9.95583 13.6422 8.98245 18.1228 11.053C18.2535 11.1135 18.3911 11.1422 18.5264 11.1422C18.8904 11.1422 19.2387 10.9349 19.4015 10.5828C19.6247 10.0997 19.4141 9.52733 18.9311 9.30408Z" fill="#D9D1C7"/>
<path d="M12.5001 0.860718C5.88316 0.860718 0.5 6.24375 0.5 12.8603C0.5 19.4772 5.88316 24.8605 12.5001 24.8605C19.1168 24.8605 24.5 19.4772 24.5 12.8603C24.5 6.24375 19.1168 0.860718 12.5001 0.860718ZM12.5001 22.9337C6.94556 22.9337 2.42673 18.4149 2.42673 12.8603C2.42673 7.30602 6.94556 2.78732 12.5001 2.78732C18.0544 2.78732 22.5733 7.30602 22.5733 12.8603C22.5733 18.4149 18.0544 22.9337 12.5001 22.9337Z" fill="#D9D1C7"/>
</g>
<defs>
<clipPath id="clip0_25_493">
<rect width="24" height="24" fill="white" transform="translate(0.5 0.860474)"/>
</clipPath>
</defs>
</svg>
