<svg width="24" height="25" viewBox="0 0 24 25" fill="none" xmlns="http://www.w3.org/2000/svg">
<g clip-path="url(#clip0_1271_126)">
<path d="M16.5538 16.0374C12.5598 14.1916 6.9695 15.008 6.73354 15.0436C6.20741 15.1231 5.84532 15.6139 5.92483 16.14C6.00434 16.6662 6.49553 17.0279 7.02127 16.9488C7.07342 16.9408 12.2706 16.1804 15.7455 17.7864C15.8763 17.8469 16.0138 17.8755 16.1491 17.8755C16.5131 17.8754 16.8615 17.6682 17.0242 17.3161C17.2473 16.8332 17.0368 16.2607 16.5538 16.0374Z" fill="#131026"/>
<path d="M17.6763 12.568C13.1404 10.4719 6.77964 11.4008 6.51106 11.4413C5.98519 11.5208 5.62335 12.0113 5.7026 12.5372C5.78173 13.0632 6.27266 13.4256 6.7984 13.3466C6.85851 13.3374 12.8619 12.4658 16.868 14.3171C16.999 14.3776 17.1363 14.4063 17.2716 14.4063C17.6356 14.4061 17.984 14.1989 18.1468 13.8467C18.37 13.3638 18.1593 12.7913 17.6763 12.568Z" fill="#131026"/>
<path d="M18.4311 8.94361C13.4208 6.62806 6.3839 7.65553 6.0868 7.70035C5.56093 7.77986 5.19909 8.27041 5.27835 8.79628C5.3576 9.32215 5.84866 9.68501 6.37414 9.6055C6.44132 9.59536 13.1422 8.62197 17.6228 10.6926C17.7535 10.7531 17.8911 10.7817 18.0264 10.7817C18.3904 10.7817 18.7387 10.5744 18.9015 10.2223C19.1247 9.73922 18.9141 9.16685 18.4311 8.94361Z" fill="#131026"/>
<path d="M12.0001 0.500244C5.38316 0.500244 0 5.88327 0 12.4998C0 19.1167 5.38316 24.5 12.0001 24.5C18.6168 24.5 24 19.1167 24 12.4998C24 5.88327 18.6168 0.500244 12.0001 0.500244ZM12.0001 22.5733C6.44556 22.5733 1.92673 18.0544 1.92673 12.4998C1.92673 6.94554 6.44556 2.42685 12.0001 2.42685C17.5544 2.42685 22.0733 6.94554 22.0733 12.4998C22.0733 18.0544 17.5544 22.5733 12.0001 22.5733Z" fill="#131026"/>
</g>
<defs>
<clipPath id="clip0_1271_126">
<rect width="24" height="24" fill="white" transform="translate(0 0.5)"/>
</clipPath>
</defs>
</svg>
